<svg xmlns="http://www.w3.org/2000/svg" width="1200" height="630" viewBox="0 0 1200 630">
  <rect width="1200" height="630" fill="#edf3f0"/>
  <path d="M0 0h1200v16H0z" fill="#0d6b5b"/>
  <g fill="none" stroke="#d6dfdb" stroke-width="1" opacity=".7">
    <path d="M0 90h1200M0 180h1200M0 270h1200M0 360h1200M0 450h1200M0 540h1200"/>
    <path d="M90 0v630M180 0v630M270 0v630M360 0v630M450 0v630M540 0v630M630 0v630M720 0v630M810 0v630M900 0v630M990 0v630M1080 0v630"/>
  </g>
  <rect x="90" y="86" width="1020" height="458" fill="#fff" stroke="#17211e" stroke-width="2"/>
  <rect x="130" y="130" width="84" height="84" fill="#17211e"/>
  <path d="M153 151v17a19 19 0 0 0 38 0v-17M146 151h14M184 151h14" fill="none" stroke="#dceee8" stroke-width="7" stroke-linecap="round"/>
  <text x="250" y="175" fill="#0d6b5b" font-family="sans-serif" font-size="28" font-weight="700">香港私家醫院</text>
  <text x="130" y="310" fill="#17211e" font-family="serif" font-size="64" font-weight="700">分娩費用估算器</text>
  <text x="130" y="380" fill="#65716d" font-family="sans-serif" font-size="30">院方套餐 · 專業費估算 · BB費用 · 同條件比較</text>
  <rect x="130" y="438" width="420" height="58" fill="#17211e"/>
  <text x="158" y="477" fill="#fff" font-family="sans-serif" font-size="24">每間醫院一個中央估算</text>
</svg>
